<svg width="33" height="35" viewBox="0 0 33 35" fill="none" xmlns="http://www.w3.org/2000/svg">
<path d="M32.3185 21.5811L29.4064 19.8994C29.7004 18.3135 29.7004 16.6865 29.4064 15.1006L32.3185 13.4189C32.6535 13.2275 32.8039 12.8311 32.6945 12.4619C31.9357 10.0283 30.6437 7.82715 28.9552 5.99512C28.6955 5.71485 28.2717 5.64649 27.9435 5.83789L25.0314 7.51953C23.8078 6.4668 22.3996 5.65332 20.8752 5.12012V1.76367C20.8752 1.38086 20.6086 1.0459 20.2326 0.96387C17.7238 0.403323 15.1535 0.430667 12.7678 0.96387C12.3918 1.0459 12.1252 1.38086 12.1252 1.76367V5.12696C10.6076 5.667 9.19939 6.48047 7.96892 7.52637L5.06365 5.84473C4.72869 5.65332 4.3117 5.71485 4.05193 6.00196C2.36346 7.82715 1.07146 10.0283 0.312674 12.4688C0.196463 12.8379 0.35369 13.2344 0.688651 13.4258L3.60076 15.1074C3.30681 16.6934 3.30681 18.3203 3.60076 19.9063L0.688651 21.5879C0.35369 21.7793 0.203299 22.1758 0.312674 22.5449C1.07146 24.9785 2.36346 27.1797 4.05193 29.0117C4.3117 29.292 4.73552 29.3604 5.06365 29.1689L7.97576 27.4873C9.19939 28.54 10.6076 29.3535 12.132 29.8867V33.25C12.132 33.6328 12.3986 33.9678 12.7746 34.0498C15.2834 34.6104 17.8537 34.583 20.2394 34.0498C20.6154 33.9678 20.882 33.6328 20.882 33.25V29.8867C22.3996 29.3467 23.8078 28.5332 25.0383 27.4873L27.9504 29.1689C28.2853 29.3604 28.7023 29.2988 28.9621 29.0117C30.6506 27.1865 31.9426 24.9854 32.7013 22.5449C32.8039 22.1689 32.6535 21.7725 32.3185 21.5811ZM16.5002 22.9688C13.4855 22.9688 11.0314 20.5147 11.0314 17.5C11.0314 14.4854 13.4855 12.0313 16.5002 12.0313C19.5148 12.0313 21.9689 14.4854 21.9689 17.5C21.9689 20.5147 19.5148 22.9688 16.5002 22.9688Z" fill="#0C58D3"/>
</svg>
